<?xml version="1.0" encoding="utf-8"?>
<!-- Generator: Adobe Illustrator 23.0.0, SVG Export Plug-In . SVG Version: 6.00 Build 0)  -->
<svg version="1.1" id="Layer_1" xmlns="http://www.w3.org/2000/svg" xmlns:xlink="http://www.w3.org/1999/xlink" x="0px" y="0px"
	 viewBox="0 0 12 12" style="enable-background:new 0 0 12 12;" xml:space="preserve">
<style type="text/css">
	.st0{fill:#FFFFFF;}
</style>
<path class="st0" d="M9.6,6.5c0-0.2,0-0.3,0-0.5c0-0.2,0-0.3,0-0.5l1-0.8c0.1-0.1,0.1-0.2,0.1-0.3l-1-1.7C9.6,2.7,9.5,2.6,9.4,2.7
	L8.2,3.1C7.9,3,7.7,2.8,7.4,2.7L7.2,1.4c0-0.1-0.1-0.2-0.2-0.2H5c-0.1,0-0.2,0.1-0.2,0.2L4.6,2.7C4.3,2.8,4.1,3,3.8,3.1L2.6,2.7
	c-0.1,0-0.2,0-0.3,0.1l-1,1.7c-0.1,0.1,0,0.2,0.1,0.3l1,0.8c0,0.2,0,0.3,0,0.5s0,0.3,0,0.5l-1,0.8C1.3,7.3,1.3,7.5,1.4,7.6l1,1.7
	c0.1,0.1,0.2,0.1,0.3,0.1l1.2-0.5C4.1,9,4.3,9.2,4.6,9.3l0.2,1.3c0,0.1,0.1,0.2,0.2,0.2H7c0.1,0,0.2-0.1,0.2-0.2l0.2-1.3
	C7.7,9.2,7.9,9,8.2,8.9l1.2,0.5c0.1,0,0.2,0,0.3-0.1l1-1.7c0.1-0.1,0-0.2-0.1-0.3L9.6,6.5z M6,7.8C5,7.8,4.2,7,4.2,6S5,4.2,6,4.2
	S7.8,5,7.8,6S7,7.8,6,7.8"/>
</svg>
